HIERARCHY
ROOT Hips
{
    OFFSET 14.123167037963867 94.97297668457031 -18.513877868652344
    CHANNELS 6 Xposition Yposition Zposition Zrotation Xrotation Yrotation
    JOINT RightUpLeg
    {
        OFFSET -14.123167037963867 0.0 0.0
        CHANNELS 3 Zrotation Xrotation Yrotation
        JOINT RightLeg
        {
            OFFSET 0.0 -48.68828582763672 0.0
            CHANNELS 3 Zrotation Xrotation Yrotation
            JOINT RightFoot
            {
                OFFSET 0.0 -46.284690856933594 0.0
                CHANNELS 3 Zrotation Xrotation Yrotation
                End Site
                {
                    OFFSET 0.0 0.0 18.513877868652344
                }
            }
        }
    }
    JOINT LeftUpLeg
    {
        OFFSET 14.123167037963867 0.0 0.0
        CHANNELS 3 Zrotation Xrotation Yrotation
        JOINT LeftLeg
        {
            OFFSET 0.0 -48.68828582763672 0.0
            CHANNELS 3 Zrotation Xrotation Yrotation
            JOINT LeftFoot
            {
                OFFSET 0.0 -46.284690856933594 0.0
                CHANNELS 3 Zrotation Xrotation Yrotation
                End Site
                {
                    OFFSET 0.0 0.0 18.513877868652344
                }
            }
        }
    }
    JOINT Spine
    {
        OFFSET 0.0 25.34891128540039 0.0
        CHANNELS 3 Zrotation Xrotation Yrotation
        JOINT Spine3
        {
            OFFSET 0.0 25.895832061767578 0.0
            CHANNELS 3 Zrotation Xrotation Yrotation
            JOINT Neck
            {
                OFFSET 0.0 12.225237846374512 0.0
                CHANNELS 3 Zrotation Xrotation Yrotation
                End Site
                {
                    OFFSET 0.0 4.890095233917236 0.0
                }
            }
            JOINT LeftArm
            {
                OFFSET 14.92133617401123 0.0 0.0
                CHANNELS 3 Zrotation Xrotation Yrotation
                JOINT LeftForeArm
                {
                    OFFSET 25.870586395263672 0.0 0.0
                    CHANNELS 3 Zrotation Xrotation Yrotation
                    JOINT LeftHand
                    {
                        OFFSET 21.67721939086914 0.0 0.0
                        CHANNELS 3 Zrotation Xrotation Yrotation
                        End Site
                        {
                            OFFSET 8.670886993408203 0.0 0.0
                        }
                    }
                }
            }
            JOINT RightArm
            {
                OFFSET -14.92133617401123 0.0 0.0
                CHANNELS 3 Zrotation Xrotation Yrotation
                JOINT RightForeArm
                {
                    OFFSET -25.870586395263672 0.0 0.0
                    CHANNELS 3 Zrotation Xrotation Yrotation
                    JOINT RightHand
                    {
                        OFFSET -21.67721939086914 0.0 0.0
                        CHANNELS 3 Zrotation Xrotation Yrotation
                        End Site
                        {
                            OFFSET -8.670886993408203 0.0 0.0
                        }
                    }
                }
            }
        }
    }
}
MOTION
Frames: 10
Frame Time: 0.03333333333333333
6.18092599324882e-06 95.07381439208984 -0.0009298159275203943 -2.3222805619527973 -11.192026365564242 -15.821863317058853 1.5759098574684656 18.54904345157617 -1.8590235422699162 -2.5714660366088795 12.518449750874831 -0.6397715186382306 -3.663887063811167e-34 4.969616689786745e-17 8.448348372637467e-16 1.4843305751626623 16.674020052273985 -1.6565063056312488 -4.721340972845825 11.181842035907016 -0.15380139658552694 1.7393658414253605e-16 -2.7627324881899645e-33 -1.820122112634395e-15 -0.20539757305775977 19.86228832669602 -1.3798259081408681 8.277582481480736e-08 2.300262884933056e-07 1.1211274078830307 3.036297247037424 4.812417146230229 -174.97399651460205 129.52520190116365 19.29112425892424 -171.7969310104815 1.0298895404427556e-06 -2.5453134215295513e-07 96.28779357630339 0.0 0.0 0.0 -130.25185966862108 17.83934383541944 164.95600616807528 -2.9200664488029094e-06 2.615737881086978e-07 -111.41199850083402 -1.7655625192200634e-31 -3.1805546814635168e-15 -6.3611093629270335e-15
1.905498356791213e-05 95.07393646240234 -0.000867447117343545 -2.3923636330115707 -10.802211513739756 -16.285741465672782 1.4263139625616121 18.2845774993553 -1.8229455997166497 -2.143280447418889 11.424604963189706 -0.6651255430084873 0.0 0.0 -9.93923337957349e-16 1.4065218767136451 15.881919935094755 -1.5907176066070354 -4.3248828831909405 11.713937345379914 -0.25373436530189447 -2.2363275104040355e-16 3.1805546814635168e-15 3.261310952672551e-16 -0.2910186916200518 18.77145045482041 -1.3169227043635026 -9.505010355295131e-08 5.914248797141006e-07 0.7102511307503719 2.640980114876684 5.246566755440251 -174.50122099506768 133.11032980319467 21.903793707099943 -168.15640853104625 -5.814883730568788e-07 1.4141194043297612e-06 99.73667156463999 6.3611093629270335e-15 0.0 0.0 -133.4912761774903 21.004953623510247 161.02593830154183 -1.8140916609187776e-06 2.7207016059328343e-06 -108.75355506435886 0.0 3.1805546814635168e-15 0.0
5.284846338327043e-05 95.07430267333984 -0.0008728819084353745 -2.43154112134756 -10.304043513688823 -16.59199207962898 1.375871961178066 17.766268277764546 -1.8562693986218493 -2.0710297418424557 10.24018698797469 -0.6585674971164498 -3.975693351829396e-16 -6.207055731633036e-33 1.7890620083232284e-15 1.4330881018028994 14.887483160737892 -1.5841301746569652 -3.846110445818403 11.320971469259453 -0.4110738401182217 0.0 0.0 -1.4287647983136892e-15 -0.2548687275367749 17.895131308690516 -1.3680645764336448 -5.7771214889716384e-08 -5.0934329802308986e-08 0.509821039206381 2.43023805013314 4.882424196735521 -174.29277332169463 138.38971587754764 24.53102667123379 -164.52654307946446 2.8102348904988714e-06 6.265111837053791e-07 102.0533693630339 0.0 0.0 -1.2722218725854067e-14 -137.9036414993743 23.17158668140679 158.62850700052252 -4.645691550444803e-06 -1.3689022417416315e-07 -106.36242455285729 0.0 -1.987846675914698e-16 0.0
4.4941545638721436e-05 95.07472229003906 -0.000940790050663054 -2.576455765336812 -10.341640651276448 -16.38228730566311 1.4753530193753954 17.388917733553395 -1.8000951912948064 -2.547302969146873 9.418640316297031 -0.5205716648933973 5.963540027744093e-16 2.8449005436651414e-33 5.466578358765419e-16 1.5163912303323317 14.44507796952434 -1.5195670058855717 -3.6543053716464797 10.979167621519455 -0.42427021128102255 4.969616689786748e-17 3.1805546814635164e-15 -1.5654292572828244e-15 0.44383248886315824 17.14574263467647 -1.472977500833986 1.2498496954756897e-07 2.2243510589352723e-08 0.2501961327675842 1.8405519079051174 5.591511754448501 -174.00882422971122 144.36714926905452 24.904021223536304 -161.08877417975106 -3.8091334698494875e-06 4.042668277679042e-06 101.47792039460099 0.0 -3.180554681463516e-15 0.0 -143.37040731947542 23.350104614655642 156.4765512525005 9.821400620776892e-07 -1.5910259435024365e-07 -103.02307134692518 0.0 3.975693351829396e-16 0.0
6.342888809740543e-05 95.07526397705078 -0.0010399435414001346 -2.9601064842476354 -10.51984062684751 -16.6281779961751 1.6148067887747464 17.387262052982248 -1.7365434507556698 -3.0713260867748122 9.146898322657144 -0.39015241422215213 4.969616689786745e-16 -2.4848083448933725e-17 2.4848083448933725e-17 1.6809983935835098 14.699721920888562 -1.499167114819182 -2.9921365715677117 10.046193500815068 -0.4725484829219342 -1.987846675914698e-16 -1.5302116560623108e-33 8.821069624371472e-16 0.7676089381442182 16.208987785694735 -1.3879762121429422 7.028533439986814e-08 -7.336323896611286e-08 0.03371642712606079 1.8808366178027285 7.252734994421607 -175.09951170639008 151.06782689202822 25.334070386715332 -156.14651113808404 2.24324606767285e-06 1.6418411120975366e-06 98.8621451480959 0.0 -9.93923337957349e-17 0.0 -148.90600699329846 25.55240831977974 151.14819620296387 8.013237491459826e-07 2.5305040156266164e-06 -98.02779945311921 0.0 3.1805546814635168e-15 0.0
6.706773274345323e-05 95.0756607055664 -0.0011365850223228335 -3.033093500640822 -10.753281077710295 -16.979494118027674 1.4922060792924186 17.570733829991646 -1.6757650017321724 -3.8676613649970917 8.983232761210575 -0.21939520617949293 1.863606258670028e-16 3.1805546814635164e-15 4.137594145551354e-15 1.1856463596363727 15.036185895638143 -1.368182086272116 -1.8525584063417144 9.175152099788127 -0.5157881519580929 1.987846675914698e-16 -2.4848083448933725e-17 -1.26725225589562e-15 0.791672255410643 15.317532748200115 -1.2842659174262594 2.686201185319152e-07 -1.2809328403699668e-07 0.3967492632982818 1.9445634600409663 9.29337828270811 -175.70506879390305 156.3055717111484 28.436732753690254 -152.93325349303527 3.195296761830656e-07 2.770366523847051e-06 96.49413647663457 3.1805546814635164e-15 0.0 0.0 -153.7802852405124 28.155863324710996 147.23516048916926 1.3569142335174452e-06 1.1557534421801403e-06 -93.7032907614347 3.1805546814635168e-15 0.0 0.0
0.00012225419050082564 95.07587432861328 -0.0011467094300314784 -3.0973597669606034 -10.639621476973488 -17.54073186389061 1.2786780659560748 17.538606686316584 -1.6126222823449876 -4.340507680179832 9.03424735195121 -0.1167054612937343 1.987846675914698e-16 1.3793457181406746e-33 7.951386703658792e-16 0.9924114531074874 14.942170517284499 -1.31347769185288 -1.1374974476552824 8.99631638526625 -0.5915275291215769 0.0 0.0 4.969616689786745e-17 0.5856641627285052 14.272310836656077 -1.1512150593658577 7.78899953271515e-09 9.503913023425779e-08 0.4463118801909718 2.748784060525774 11.300617626033743 -177.23180347534694 161.1323124205613 32.66300341220846 -149.67449583080497 2.980509911211585e-06 4.35628231536241e-07 92.66887162896064 0.0 0.0 0.0 -156.8824967632361 32.87797851622268 142.45966321045094 2.1010759518144224e-06 4.298134908810318e-06 -88.70262516240413 0.0 3.180554681463516e-15 0.0
0.00019019917817786336 95.07597351074219 -0.0011334974551573396 -2.8868162612692774 -10.309997416597653 -17.462578062100295 1.3314063686619884 17.170172430913603 -1.6107016336221596 -4.3540541867474785 8.985644269861593 -0.13106563904281035 1.4908850069360242e-16 -3.1805546814635176e-15 1.006347379681816e-15 0.9236246183505523 14.56862629186354 -1.2769436730586683 -1.0859072839500798 8.934060243386233 -0.5941930652742625 -3.975693351829396e-16 -1.5902773407317584e-15 -1.1430118386509513e-15 0.40298685871569645 13.214784526106175 -1.0372804182448885 -6.384476490087921e-08 2.3339692406645524e-07 0.13389731899010685 3.79736089128435 13.287053139610764 -177.80911134781664 164.81115546635274 38.022768328083025 -146.75283762790224 3.825258085313751e-06 3.838617308118136e-06 86.89945501737775 0.0 0.0 0.0 -159.03998664201833 37.39097371993923 137.67265833520767 2.5537771867049784e-06 -9.777960671727708e-07 -81.47023409621185 -3.1805546814635168e-15 1.7655625192200634e-31 -6.3611093629270335e-15
0.000206107331905514 95.07588195800781 -0.0011199037544429302 -2.9044477032747986 -10.10373626394677 -17.552878829367234 0.9912516734291588 17.149259289945054 -1.5074971614192942 -3.6344756874716335 8.898120261556386 -0.19090520241397183 4.9696166897867443e-17 1.5530052155583582e-18 9.100610563171976e-16 1.0358452195149805 14.617841437033826 -1.3094257845739201 -1.3562972692814794 8.736218718563723 -0.5560549426748649 5.963540027744094e-16 4.9696166897867425e-17 -4.099933769074065e-15 0.5310409639547505 11.936189741375372 -0.9649232820347152 1.1251795298838116e-07 6.801198411380431e-08 -0.4947776612179091 4.02336322331292 15.580983660079127 -178.26098685701533 165.42139228695157 42.69872626690331 -143.04194309659093 -7.662584026968237e-07 6.114402964774015e-07 79.32518478402683 1.7655625192200634e-31 3.1805546814635176e-15 -6.361109362927035e-15 -158.60799889956672 41.19481841503537 132.6195390677285 -1.6241911523300578e-06 9.70807025726176e-07 -73.26008235802534 3.1805546814635168e-15 0.0 0.0
0.00018038571579381824 95.07581329345703 -0.001113435486331582 -2.7499579658846147 -9.84623649361471 -17.761574708730695 0.6516855118319017 16.989974417219027 -1.4153429481585103 -3.324832358657864 9.312605253623108 -0.20923187816205313 1.7393658414253607e-16 -3.1060104311167175e-18 -1.3635385792602381e-15 0.9260431410091956 14.388056601694831 -1.279819484415913 -1.5862807035502005 9.034486702556412 -0.533644287902572 -3.975693351829396e-16 4.969616689786745e-17 -1.0684675883041502e-15 0.7314674687224586 10.770773938359124 -0.9232020067787153 -5.352881426661174e-08 -6.591164747935115e-09 -0.8226039642611321 3.457414304433102 17.496697516236708 -178.58010567817138 167.11362082771547 46.43074173226319 -141.06167044609307 3.658617101897163e-06 7.901133435680365e-06 70.95124180328838 0.0 0.0 0.0 -158.8917053657881 43.55982723408676 128.7165334468714 2.3825568086326086e-06 -4.848308615718165e-06 -66.09165096689117 0.0 -3.1805546814635168e-15 0.0
